<?xml version="1.0" encoding="UTF-8" standalone="no"?>
<!-- Created with Inkscape (http://www.inkscape.org/) -->

<svg
   width="512"
   height="512"
   viewBox="0 0 135.46666 135.46667"
   version="1.1"
   id="svg1"
   xml:space="preserve"
   xmlns:xlink="http://www.w3.org/1999/xlink"
   xmlns="http://www.w3.org/2000/svg"
   xmlns:svg="http://www.w3.org/2000/svg"><defs
     id="defs1"><linearGradient
       id="linearGradient3"><stop
         style="stop-color:#98dff3;stop-opacity:1;"
         offset="0"
         id="stop2" /><stop
         style="stop-color:#49b9ca;stop-opacity:0.24489796;"
         offset="1"
         id="stop3" /></linearGradient><linearGradient
       id="linearGradient6"><stop
         style="stop-color:#ffffff;stop-opacity:1;"
         offset="0"
         id="stop6" /><stop
         style="stop-color:#ffffff;stop-opacity:0;"
         offset="1"
         id="stop7" /></linearGradient><linearGradient
       id="linearGradient37"><stop
         style="stop-color:#98dff3;stop-opacity:1;"
         offset="0"
         id="stop37" /><stop
         style="stop-color:#49b9ca;stop-opacity:1"
         offset="1"
         id="stop38" /></linearGradient><linearGradient
       xlink:href="#linearGradient37"
       id="linearGradient2"
       x1="691.49274"
       y1="1387.3265"
       x2="308.50723"
       y2="672.83191"
       gradientUnits="userSpaceOnUse"
       gradientTransform="matrix(0.13546666,0,0,0.13546666,-1.1190622e-8,-74.826662)" /><filter
       style="color-interpolation-filters:sRGB"
       id="filter8"
       x="-0.064335357"
       y="-0.01651812"
       width="1.1286707"
       height="1.0330362"><feGaussianBlur
         stdDeviation="3.3816151"
         id="feGaussianBlur8" /></filter><linearGradient
       xlink:href="#linearGradient6"
       id="linearGradient38"
       gradientUnits="userSpaceOnUse"
       gradientTransform="translate(83.079217,2e-5)"
       x1="242.89761"
       y1="622.69873"
       x2="305.77161"
       y2="431.65405" /><linearGradient
       xlink:href="#linearGradient6"
       id="linearGradient39"
       gradientUnits="userSpaceOnUse"
       gradientTransform="translate(-68.7917,2.0000004e-5)"
       x1="278.96283"
       y1="628.66168"
       x2="353.33093"
       y2="427.6105" /><linearGradient
       xlink:href="#linearGradient6"
       id="linearGradient40"
       gradientUnits="userSpaceOnUse"
       gradientTransform="translate(-68.7917,1.9999992e-5)"
       x1="353.93661"
       y1="534.06189"
       x2="416.94064"
       y2="409.04547" /><linearGradient
       xlink:href="#linearGradient6"
       id="linearGradient41"
       gradientUnits="userSpaceOnUse"
       gradientTransform="translate(-68.7917,2.0000001e-5)"
       x1="416.06638"
       y1="556.47369"
       x2="473.78424"
       y2="471.64792" /><linearGradient
       xlink:href="#linearGradient6"
       id="linearGradient42"
       gradientUnits="userSpaceOnUse"
       gradientTransform="translate(-68.7917,2.0000001e-5)"
       x1="438.83374"
       y1="476.76187"
       x2="497.54138"
       y2="372.5213" /><linearGradient
       xlink:href="#linearGradient6"
       id="linearGradient43"
       gradientUnits="userSpaceOnUse"
       gradientTransform="translate(-68.7917,2.0000004e-5)"
       x1="377.55814"
       y1="708.23517"
       x2="448.91843"
       y2="573.43048" /><linearGradient
       xlink:href="#linearGradient6"
       id="linearGradient55"
       gradientUnits="userSpaceOnUse"
       gradientTransform="translate(441.32938)"
       x1="297.37064"
       y1="717.63745"
       x2="288.65149"
       y2="439.43591" /><linearGradient
       xlink:href="#linearGradient6"
       id="linearGradient56"
       gradientUnits="userSpaceOnUse"
       gradientTransform="translate(-68.7917,2.0000005e-5)"
       x1="434.44312"
       y1="618.79437"
       x2="485.32477"
       y2="548.0578" /><linearGradient
       xlink:href="#linearGradient6"
       id="linearGradient62"
       gradientUnits="userSpaceOnUse"
       gradientTransform="translate(83.079217,2e-5)"
       x1="242.89761"
       y1="678.72815"
       x2="293.32062"
       y2="439.43591" /><linearGradient
       xlink:href="#linearGradient6"
       id="linearGradient63"
       gradientUnits="userSpaceOnUse"
       gradientTransform="translate(-68.7917,2.0000006e-5)"
       x1="260.01413"
       y1="662.64526"
       x2="350.74246"
       y2="420.10852" /><linearGradient
       xlink:href="#linearGradient6"
       id="linearGradient64"
       gradientUnits="userSpaceOnUse"
       gradientTransform="translate(-68.7917,1.9999992e-5)"
       x1="347.40884"
       y1="594.40839"
       x2="420.60925"
       y2="388.48935" /><linearGradient
       xlink:href="#linearGradient6"
       id="linearGradient65"
       gradientUnits="userSpaceOnUse"
       gradientTransform="translate(-68.7917,2e-5)"
       x1="401.05658"
       y1="592.77393"
       x2="479.74561"
       y2="441.41547" /><linearGradient
       xlink:href="#linearGradient6"
       id="linearGradient66"
       gradientUnits="userSpaceOnUse"
       gradientTransform="translate(-68.7917,2.0000001e-5)"
       x1="423.98227"
       y1="492.55298"
       x2="483.77649"
       y2="361.87637" /><linearGradient
       xlink:href="#linearGradient6"
       id="linearGradient67"
       gradientUnits="userSpaceOnUse"
       gradientTransform="translate(-68.7917,2.0000004e-5)"
       x1="356.83401"
       y1="755.04791"
       x2="441.52673"
       y2="545.01044" /><linearGradient
       xlink:href="#linearGradient6"
       id="linearGradient68"
       gradientUnits="userSpaceOnUse"
       gradientTransform="translate(-68.7917,2.0000004e-5)"
       x1="421.55685"
       y1="644.43665"
       x2="481.26291"
       y2="540.7265" /><linearGradient
       xlink:href="#linearGradient6"
       id="linearGradient75"
       gradientUnits="userSpaceOnUse"
       gradientTransform="translate(83.079217,2.0000012e-5)"
       x1="238.2285"
       y1="681.84088"
       x2="297.98975"
       y2="426.98492" /><linearGradient
       xlink:href="#linearGradient6"
       id="linearGradient76"
       gradientUnits="userSpaceOnUse"
       gradientTransform="translate(-68.7917,1.9999963e-5)"
       x1="291.79678"
       y1="619.06726"
       x2="335.24252"
       y2="433.20593" /><linearGradient
       xlink:href="#linearGradient6"
       id="linearGradient77"
       gradientUnits="userSpaceOnUse"
       gradientTransform="translate(-68.7917,1.9999968e-5)"
       x1="341.14102"
       y1="562.18048"
       x2="399.63971"
       y2="410.90701" /><linearGradient
       xlink:href="#linearGradient6"
       id="linearGradient78"
       gradientUnits="userSpaceOnUse"
       gradientTransform="translate(-68.7917,1.9999956e-5)"
       x1="412.67511"
       y1="579.36096"
       x2="479.73041"
       y2="435.80389" /><linearGradient
       xlink:href="#linearGradient6"
       id="linearGradient79"
       gradientUnits="userSpaceOnUse"
       gradientTransform="translate(-68.7917,1.999999e-5)"
       x1="424.65768"
       y1="493.95517"
       x2="491.25723"
       y2="373.82068" /><linearGradient
       xlink:href="#linearGradient6"
       id="linearGradient80"
       gradientUnits="userSpaceOnUse"
       gradientTransform="translate(-68.7917,2.0000024e-5)"
       x1="366.86139"
       y1="719.54041"
       x2="445.64853"
       y2="574.62183" /><linearGradient
       xlink:href="#linearGradient6"
       id="linearGradient81"
       gradientUnits="userSpaceOnUse"
       gradientTransform="translate(-68.7917,2.0000004e-5)"
       x1="419.68478"
       y1="636.8833"
       x2="466.72662"
       y2="561.00525" /><linearGradient
       xlink:href="#linearGradient6"
       id="linearGradient82"
       gradientUnits="userSpaceOnUse"
       gradientTransform="translate(441.32938)"
       x1="283.36328"
       y1="689.62274"
       x2="291.76425"
       y2="420.75943" /><linearGradient
       xlink:href="#linearGradient6"
       id="linearGradient100"
       gradientUnits="userSpaceOnUse"
       gradientTransform="translate(83.079217,2e-5)"
       x1="224.22115"
       y1="652.26978"
       x2="297.98975"
       y2="425.42856" /><linearGradient
       xlink:href="#linearGradient6"
       id="linearGradient101"
       gradientUnits="userSpaceOnUse"
       gradientTransform="translate(-68.7917,2.0000001e-5)"
       x1="260.77362"
       y1="679.81915"
       x2="350.61072"
       y2="407.56134" /><linearGradient
       xlink:href="#linearGradient6"
       id="linearGradient102"
       gradientUnits="userSpaceOnUse"
       gradientTransform="translate(-68.7917,1.9999992e-5)"
       x1="346.45578"
       y1="607.67188"
       x2="430.98633"
       y2="401.65378" /><linearGradient
       xlink:href="#linearGradient6"
       id="linearGradient103"
       gradientUnits="userSpaceOnUse"
       gradientTransform="translate(-68.7917,1.9999998e-5)"
       x1="355.44931"
       y1="647.71857"
       x2="478.10318"
       y2="472.49954" /><linearGradient
       xlink:href="#linearGradient6"
       id="linearGradient104"
       gradientUnits="userSpaceOnUse"
       gradientTransform="translate(-68.7917,2.0000001e-5)"
       x1="372.15991"
       y1="560.70215"
       x2="513.11963"
       y2="354.65259" /><linearGradient
       xlink:href="#linearGradient6"
       id="linearGradient105"
       gradientUnits="userSpaceOnUse"
       gradientTransform="translate(-68.7917,2.0000006e-5)"
       x1="344.58075"
       y1="749.88208"
       x2="443.93515"
       y2="592.2843" /><linearGradient
       xlink:href="#linearGradient6"
       id="linearGradient106"
       gradientUnits="userSpaceOnUse"
       gradientTransform="translate(-68.7917,2.0000006e-5)"
       x1="351.82712"
       y1="742.21246"
       x2="476.24774"
       y2="556.72131" /><filter
       style="color-interpolation-filters:sRGB"
       id="filter114"
       x="-0.058234215"
       y="-0.065160981"
       width="1.1302991"
       height="1.1457977"><feFlood
         result="flood"
         in="SourceGraphic"
         flood-opacity="0.368627"
         flood-color="rgb(0,0,0)"
         id="feFlood113" /><feGaussianBlur
         result="blur"
         in="SourceGraphic"
         stdDeviation="10.526316"
         id="feGaussianBlur113" /><feOffset
         result="offset"
         in="blur"
         dx="6.000000"
         dy="6.000000"
         id="feOffset113" /><feComposite
         result="comp1"
         operator="in"
         in="flood"
         in2="offset"
         id="feComposite113" /><feComposite
         result="comp2"
         operator="over"
         in="SourceGraphic"
         in2="comp1"
         id="feComposite114" /></filter><filter
       style="color-interpolation-filters:sRGB"
       id="filter182"
       x="-5.5322504e-05"
       y="-0.52078071"
       width="1.0001106"
       height="2.0415614"><feGaussianBlur
         stdDeviation="0.01 84.1286"
         result="blur"
         id="feGaussianBlur182" /></filter><filter
       style="color-interpolation-filters:sRGB"
       id="filter236"
       x="-0.19598085"
       y="-0.20572507"
       width="1.4385072"
       height="1.4603098"><feFlood
         result="flood"
         in="SourceGraphic"
         flood-opacity="0.368627"
         flood-color="rgb(0,0,0)"
         id="feFlood234" /><feGaussianBlur
         result="blur"
         in="SourceGraphic"
         stdDeviation="10.526316"
         id="feGaussianBlur235" /><feOffset
         result="offset"
         in="blur"
         dx="6.000000"
         dy="6.000000"
         id="feOffset235" /><feComposite
         result="comp1"
         operator="in"
         in="flood"
         in2="offset"
         id="feComposite235" /><feComposite
         result="comp2"
         operator="over"
         in="SourceGraphic"
         in2="comp1"
         id="feComposite236" /></filter><filter
       style="color-interpolation-filters:sRGB"
       id="filter243"
       x="-0.16817993"
       y="-0.16817993"
       width="1.3763026"
       height="1.3763026"><feFlood
         result="flood"
         in="SourceGraphic"
         flood-opacity="0.368627"
         flood-color="rgb(0,0,0)"
         id="feFlood242" /><feGaussianBlur
         result="blur"
         in="SourceGraphic"
         stdDeviation="10.526316"
         id="feGaussianBlur242" /><feOffset
         result="offset"
         in="blur"
         dx="6.000000"
         dy="6.000000"
         id="feOffset242" /><feComposite
         result="comp1"
         operator="in"
         in="flood"
         in2="offset"
         id="feComposite242" /><feComposite
         result="comp2"
         operator="over"
         in="SourceGraphic"
         in2="comp1"
         id="feComposite243" /></filter><filter
       style="color-interpolation-filters:sRGB"
       id="filter251"
       x="-0.16810353"
       y="-0.16810353"
       width="1.3761317"
       height="1.3761317"><feFlood
         result="flood"
         in="SourceGraphic"
         flood-opacity="0.368627"
         flood-color="rgb(0,0,0)"
         id="feFlood250" /><feGaussianBlur
         result="blur"
         in="SourceGraphic"
         stdDeviation="10.526316"
         id="feGaussianBlur250" /><feOffset
         result="offset"
         in="blur"
         dx="6.000000"
         dy="6.000000"
         id="feOffset250" /><feComposite
         result="comp1"
         operator="in"
         in="flood"
         in2="offset"
         id="feComposite250" /><feComposite
         result="comp2"
         operator="over"
         in="SourceGraphic"
         in2="comp1"
         id="feComposite251" /></filter><radialGradient
       xlink:href="#linearGradient3"
       id="radialGradient2"
       cx="67.73333"
       cy="67.73333"
       fx="67.73333"
       fy="67.73333"
       r="67.73333"
       gradientUnits="userSpaceOnUse" /></defs><g
     id="layer1"><rect
       style="fill:url(#linearGradient2);fill-opacity:1;stroke-width:1.53389;stroke-linejoin:round"
       id="rect1"
       width="135.46666"
       height="135.46666"
       x="0"
       y="5.6843419e-14" /><g
       id="g106"
       transform="matrix(0.13854088,0,0,0.13854088,-32.505682,12.582417)"><path
         id="path54"
         style="opacity:0.215839;fill:url(#linearGradient55);stroke-width:0.104086;filter:url(#filter8)"
         d="M 734.86656,404.76519 795.096,977.04213 H 668.94645 Z" /><g
         id="g56"><path
           id="path29"
           style="opacity:0.215839;fill:url(#linearGradient38);stroke-width:0.104086;filter:url(#filter8)"
           d="M 393.37334,403.88328 302.79029,977.04216 H 176.64074 Z"
           transform="matrix(-1,0,0,1,1139.5105,-3.3861152e-5)" /><path
           id="path31"
           style="opacity:0.215839;fill:url(#linearGradient39);stroke-width:0.104086;filter:url(#filter8)"
           d="M 297.32804,399.50541 150.9185,977.04216 H 24.769379 Z"
           transform="matrix(-0.99092099,0.13444551,0.13444551,0.99092099,1018.0906,-31.640851)" /><path
           id="path32"
           style="opacity:0.215839;fill:url(#linearGradient40);stroke-width:0.104086;filter:url(#filter8)"
           d="M 366.04064,368.21564 150.9185,977.04216 H 24.769379 Z"
           transform="matrix(-0.95908656,0.28311301,0.28311301,0.95908656,1063.2645,-55.325599)" /><path
           id="path33"
           style="opacity:0.215839;fill:url(#linearGradient41);stroke-width:0.104086;filter:url(#filter8)"
           d="M 433.97595,419.60731 150.9185,977.04216 H 24.769379 Z"
           transform="matrix(-0.83054432,0.55695253,0.55695253,0.83054432,1029.5143,-186.93153)" /><path
           id="path35"
           style="opacity:0.215839;fill:url(#linearGradient42);stroke-width:0.104086;filter:url(#filter8)"
           d="M 463.77665,319.49529 150.9185,977.04216 H 24.769379 Z"
           transform="matrix(-0.9009342,0.43395571,0.43395571,0.9009342,1130.318,-88.791186)" /><path
           id="path36"
           style="opacity:0.215839;fill:url(#linearGradient43);stroke-width:0.104086;filter:url(#filter8)"
           d="M 413.2529,529.87278 197.59309,1021.2045 H 71.443973 Z"
           transform="matrix(-0.68728744,0.72638555,0.72638555,0.68728744,875.57916,-263.05001)" /><path
           id="path55"
           style="opacity:0.215839;fill:url(#linearGradient56);stroke-width:0.104086;filter:url(#filter8)"
           d="M 427.64558,524.54184 147.54711,980.37316 67.826192,1018.2528 Z"
           transform="matrix(-0.63216718,0.77483202,0.77483202,0.63216718,958.3765,-261.61412)" /></g><g
         id="g62"
         transform="matrix(-1,0,0,1,1447.0677,0)"><path
           id="path56"
           style="opacity:0.215839;fill:url(#linearGradient62);stroke-width:0.104086;filter:url(#filter8)"
           d="M 393.37334,403.88328 302.79029,977.04216 H 176.64074 Z"
           transform="matrix(-1,0,0,1,1139.5105,-3.3861152e-5)" /><path
           id="path57"
           style="opacity:0.215839;fill:url(#linearGradient63);stroke-width:0.104086;filter:url(#filter8)"
           d="M 297.32804,399.50541 150.9185,977.04216 H 24.769379 Z"
           transform="matrix(-0.99092099,0.13444551,0.13444551,0.99092099,1018.0906,-31.640851)" /><path
           id="path58"
           style="opacity:0.215839;fill:url(#linearGradient64);stroke-width:0.104086;filter:url(#filter8)"
           d="M 366.04064,368.21564 150.9185,977.04216 H 24.769379 Z"
           transform="matrix(-0.95908656,0.28311301,0.28311301,0.95908656,1063.2645,-55.325599)" /><path
           id="path59"
           style="opacity:0.215839;fill:url(#linearGradient65);stroke-width:0.104086;filter:url(#filter8)"
           d="M 433.97595,419.60731 150.9185,977.04216 H 24.769379 Z"
           transform="matrix(-0.83054432,0.55695253,0.55695253,0.83054432,1029.5143,-186.93153)" /><path
           id="path60"
           style="opacity:0.215839;fill:url(#linearGradient66);stroke-width:0.104086;filter:url(#filter8)"
           d="M 463.77665,319.49529 150.9185,977.04216 H 24.769379 Z"
           transform="matrix(-0.9009342,0.43395571,0.43395571,0.9009342,1130.318,-88.791186)" /><path
           id="path61"
           style="opacity:0.215839;fill:url(#linearGradient67);stroke-width:0.104086;filter:url(#filter8)"
           d="M 413.2529,529.87278 197.59309,1021.2045 H 71.443973 Z"
           transform="matrix(-0.68728744,0.72638555,0.72638555,0.68728744,875.57916,-263.05001)" /><path
           id="path62"
           style="opacity:0.215839;fill:url(#linearGradient68);stroke-width:0.104086;filter:url(#filter8)"
           d="M 427.64558,524.54184 147.54711,980.37316 67.826192,1018.2528 Z"
           transform="matrix(-0.63216718,0.77483202,0.77483202,0.63216718,958.3765,-261.61412)" /></g><path
         id="path68"
         style="opacity:0.215839;fill:url(#linearGradient82);stroke-width:0.104086;filter:url(#filter8)"
         d="M 734.86656,404.76519 795.096,977.04213 H 668.94645 Z"
         transform="matrix(1,0,0,-1,0,796.16818)" /><g
         id="g75"
         transform="matrix(1,0,0,-1,0,796.16818)"><path
           id="path69"
           style="opacity:0.215839;fill:url(#linearGradient75);stroke-width:0.104086;filter:url(#filter8)"
           d="M 393.37334,403.88328 302.79029,977.04216 H 176.64074 Z"
           transform="matrix(-1,0,0,1,1139.5105,-3.3861152e-5)" /><path
           id="path70"
           style="opacity:0.215839;fill:url(#linearGradient76);stroke-width:0.104086;filter:url(#filter8)"
           d="M 297.32804,399.50541 150.9185,977.04216 H 24.769379 Z"
           transform="matrix(-0.99092099,0.13444551,0.13444551,0.99092099,1018.0906,-31.640851)" /><path
           id="path71"
           style="opacity:0.215839;fill:url(#linearGradient77);stroke-width:0.104086;filter:url(#filter8)"
           d="M 366.04064,368.21564 150.9185,977.04216 H 24.769379 Z"
           transform="matrix(-0.95908656,0.28311301,0.28311301,0.95908656,1063.2645,-55.325599)" /><path
           id="path72"
           style="opacity:0.215839;fill:url(#linearGradient78);stroke-width:0.104086;filter:url(#filter8)"
           d="M 433.97595,419.60731 150.9185,977.04216 H 24.769379 Z"
           transform="matrix(-0.83054432,0.55695253,0.55695253,0.83054432,1029.5143,-186.93153)" /><path
           id="path73"
           style="opacity:0.215839;fill:url(#linearGradient79);stroke-width:0.104086;filter:url(#filter8)"
           d="M 463.77665,319.49529 150.9185,977.04216 H 24.769379 Z"
           transform="matrix(-0.9009342,0.43395571,0.43395571,0.9009342,1130.318,-88.791186)" /><path
           id="path74"
           style="opacity:0.215839;fill:url(#linearGradient80);stroke-width:0.104086;filter:url(#filter8)"
           d="M 413.2529,529.87278 197.59309,1021.2045 H 71.443973 Z"
           transform="matrix(-0.68728744,0.72638555,0.72638555,0.68728744,875.57916,-263.05001)" /><path
           id="path75"
           style="opacity:0.215839;fill:url(#linearGradient81);stroke-width:0.104086;filter:url(#filter8)"
           d="M 427.64558,524.54184 147.54711,980.37316 67.826192,1018.2528 Z"
           transform="matrix(-0.63216718,0.77483202,0.77483202,0.63216718,958.3765,-261.61412)" /></g><g
         id="g100"
         transform="rotate(180,723.53384,398.08406)"><path
           id="path94"
           style="opacity:0.215839;fill:url(#linearGradient100);stroke-width:0.104086;filter:url(#filter8)"
           d="M 393.37334,403.88328 302.79029,977.04216 H 176.64074 Z"
           transform="matrix(-1,0,0,1,1139.5105,-3.3861152e-5)" /><path
           id="path95"
           style="opacity:0.215839;fill:url(#linearGradient101);stroke-width:0.104086;filter:url(#filter8)"
           d="M 297.32804,399.50541 150.9185,977.04216 H 24.769379 Z"
           transform="matrix(-0.99092099,0.13444551,0.13444551,0.99092099,1018.0906,-31.640851)" /><path
           id="path96"
           style="opacity:0.215839;fill:url(#linearGradient102);stroke-width:0.104086;filter:url(#filter8)"
           d="M 366.04064,368.21564 150.9185,977.04216 H 24.769379 Z"
           transform="matrix(-0.95908656,0.28311301,0.28311301,0.95908656,1063.2645,-55.325599)" /><path
           id="path97"
           style="opacity:0.215839;fill:url(#linearGradient103);stroke-width:0.104086;filter:url(#filter8)"
           d="M 433.97595,419.60731 150.9185,977.04216 H 24.769379 Z"
           transform="matrix(-0.83054432,0.55695253,0.55695253,0.83054432,1029.5143,-186.93153)" /><path
           id="path98"
           style="opacity:0.215839;fill:url(#linearGradient104);stroke-width:0.104086;filter:url(#filter8)"
           d="M 463.77665,319.49529 150.9185,977.04216 H 24.769379 Z"
           transform="matrix(-0.9009342,0.43395571,0.43395571,0.9009342,1130.318,-88.791186)" /><path
           id="path99"
           style="opacity:0.215839;fill:url(#linearGradient105);stroke-width:0.104086;filter:url(#filter8)"
           d="M 413.2529,529.87278 197.59309,1021.2045 H 71.443973 Z"
           transform="matrix(-0.68728744,0.72638555,0.72638555,0.68728744,875.57916,-263.05001)" /><path
           id="path100"
           style="opacity:0.215839;fill:url(#linearGradient106);stroke-width:0.104086;filter:url(#filter8)"
           d="M 427.64558,524.54184 147.54711,980.37316 67.826192,1018.2528 Z"
           transform="matrix(-0.63216718,0.77483202,0.77483202,0.63216718,958.3765,-261.61412)" /></g></g><rect
       style="fill:url(#radialGradient2);fill-opacity:1;stroke-width:1.53389;stroke-linejoin:round"
       id="rect2"
       width="135.46666"
       height="135.46666"
       x="0"
       y="5.6843419e-14" /><g
       id="g1"
       transform="matrix(0.14788252,0,0,0.14788252,-57.052091,-115.27959)"><path
         style="opacity:0.805901;fill:#ffffff;fill-opacity:1;stroke-width:0.264583;filter:url(#filter251)"
         id="path251"
         d="m 659.34166,511.17499 -45.0388,-38.47229 -58.67786,-8.09438 38.47229,-45.0388 8.09438,-58.67786 45.03879,38.47229 58.67786,8.09438 -38.47229,45.0388 z"
         transform="matrix(0.48105569,0.40636588,-0.40636588,0.48105569,1179.3394,983.11766)" /><path
         style="opacity:0.77795;fill:#ffffff;fill-opacity:1;stroke-width:0.264583;filter:url(#filter236)"
         id="path241"
         d="m 537.70161,449.79166 7.83421,-44.31721 -32.06613,-31.57773 44.56907,-6.24399 20.12322,-40.25476 19.711,40.4582 44.50296,6.69893 -32.387,31.24854 7.38112,44.39491 -39.72727,-21.14554 z"
         transform="matrix(0.22629431,0.88477916,-0.88477916,0.22629431,1011.3398,293.31735)" /><path
         style="opacity:0.723602;fill:#ffffff;fill-opacity:1;stroke-width:0.264583;filter:url(#filter236)"
         id="path236"
         d="m 537.70161,449.79166 7.83421,-44.31721 -32.06613,-31.57773 44.56907,-6.24399 20.12322,-40.25476 19.711,40.4582 44.50296,6.69893 -32.387,31.24854 7.38112,44.39491 -39.72727,-21.14554 z"
         transform="matrix(0.93540601,0.38842445,-0.38842445,0.93540601,826.22433,747.43314)" /><path
         style="opacity:0.830745;fill:#ffffff;fill-opacity:1;stroke-width:0.264583;filter:url(#filter243)"
         id="path244"
         d="m 753.63576,402.84947 4.34285,-65.45134 -31.65468,-57.45188 65.45134,4.34285 57.45188,-31.65468 -4.34285,65.45133 31.65468,57.45189 -65.45133,-4.34285 z"
         transform="matrix(0.28507672,-0.31119918,0.31119918,0.28507672,821.6158,1590.4178)" /><path
         style="opacity:0.723602;fill:#ffffff;fill-opacity:1;stroke-width:0.264583;filter:url(#filter236)"
         id="path240"
         d="m 537.70161,449.79166 7.83421,-44.31721 -32.06613,-31.57773 44.56907,-6.24399 20.12322,-40.25476 19.711,40.4582 44.50296,6.69893 -32.387,31.24854 7.38112,44.39491 -39.72727,-21.14554 z"
         transform="matrix(0.09405273,0.36773304,-0.36773304,0.09405273,1021.256,710.99042)" /><path
         style="opacity:0.835404;fill:#ffffff;fill-opacity:1;stroke-width:0.264583;filter:url(#filter243)"
         id="path243"
         d="m 753.63576,402.84947 4.34285,-65.45134 -31.65468,-57.45188 65.45134,4.34285 57.45188,-31.65468 -4.34285,65.45133 31.65468,57.45189 -65.45133,-4.34285 z"
         transform="matrix(0.58202835,-0.39384761,0.39384761,0.58202835,-428.12156,1561.0781)" /><path
         style="opacity:0.507764;fill:#ffffff;fill-opacity:1;stroke-width:0.264583;filter:url(#filter236)"
         id="path238"
         d="m 537.70161,449.79166 7.83421,-44.31721 -32.06613,-31.57773 44.56907,-6.24399 20.12322,-40.25476 19.711,40.4582 44.50296,6.69893 -32.387,31.24854 7.38112,44.39491 -39.72727,-21.14554 z"
         transform="matrix(0.70576561,0.11276433,-0.11276433,0.70576561,107.7647,1048.9866)" /><path
         style="opacity:0.481366;fill:#ffffff;fill-opacity:1;stroke-width:0.264583;filter:url(#filter236)"
         id="path246"
         d="m 537.70161,449.79166 7.83421,-44.31721 -32.06613,-31.57773 44.56907,-6.24399 20.12322,-40.25476 19.711,40.4582 44.50296,6.69893 -32.387,31.24854 7.38112,44.39491 -39.72727,-21.14554 z"
         transform="matrix(0.2212849,0.16921968,-0.16921968,0.2212849,723.58068,1275.4926)" /><path
         style="opacity:0.481366;fill:#ffffff;fill-opacity:1;stroke-width:0.264583;filter:url(#filter236)"
         id="path247"
         d="m 537.70161,449.79166 7.83421,-44.31721 -32.06613,-31.57773 44.56907,-6.24399 20.12322,-40.25476 19.711,40.4582 44.50296,6.69893 -32.387,31.24854 7.38112,44.39491 -39.72727,-21.14554 z"
         transform="matrix(0.04276454,0.16720336,-0.16720336,0.04276454,855.99674,1390.0004)" /><path
         style="opacity:0.481366;fill:#ffffff;fill-opacity:1;stroke-width:0.264583;filter:url(#filter236)"
         id="path248"
         d="m 537.70161,449.79166 7.83421,-44.31721 -32.06613,-31.57773 44.56907,-6.24399 20.12322,-40.25476 19.711,40.4582 44.50296,6.69893 -32.387,31.24854 7.38112,44.39491 -39.72727,-21.14554 z"
         transform="matrix(-0.14625351,0.27593111,-0.27593111,-0.14625351,905.48726,1402.4024)" /><path
         style="opacity:0.481366;fill:#ffffff;fill-opacity:1;stroke-width:0.264583;filter:url(#filter236)"
         id="path249"
         d="m 537.70161,449.79166 7.83421,-44.31721 -32.06613,-31.57773 44.56907,-6.24399 20.12322,-40.25476 19.711,40.4582 44.50296,6.69893 -32.387,31.24854 7.38112,44.39491 -39.72727,-21.14554 z"
         transform="matrix(0.07738276,0.30255574,-0.30255574,0.07738276,1155.0879,1298.6444)" /></g><g
       id="g2"><g
         transform="matrix(0.14403676,0.05767082,-0.05767082,0.14403676,80.552071,-176.14167)"
         id="g219"
         style="filter:url(#filter182)"><g
           transform="matrix(-10.769549,0,0,-10.769549,362.60632,1347.3176)"
           id="g213"><path
             id="path212"
             style="fill:#ffcc4d;fill-opacity:1;fill-rule:nonzero;stroke:none"
             d="m 0,0 c 0,-9.941 -8.059,-18 -18,-18 -9.941,0 -18,8.059 -18,18 0,9.941 8.059,18 18,18 C -8.059,18 0,9.941 0,0" /></g><g
           transform="matrix(-10.769549,0,0,-10.769549,520.08302,1415.3268)"
           id="g214"><path
             id="path213"
             style="fill:#664500;fill-opacity:1;fill-rule:nonzero;stroke:none"
             d="m 0,0 c -0.153,0.132 -0.368,0.159 -0.551,0.069 l -4,-2 c -1.871,-0.935 -6.727,-0.947 -6.776,-0.947 h -10e-4 c -0.276,0 -0.499,-0.224 -0.499,-0.5 0,-0.184 0.1,-0.347 0.25,-0.433 v 0 h 10e-4 v 0 l 0.001,-10e-4 c 0.071,-0.041 0.153,-0.064 0.24,-0.066 h 0.008 7 c 2.658,0 4.089,2.186 4.474,3.342 C 0.211,-0.344 0.153,-0.133 0,0" /></g><g
           transform="matrix(-10.607038,1.8638459,-1.8638459,-10.607038,430.52421,1339.2592)"
           id="g215"><path
             id="path214"
             style="fill:#664500;fill-opacity:1;fill-rule:nonzero;stroke:none"
             d="M 0,0 C -0.305,0 -0.605,0.138 -0.801,0.4 -3.441,3.921 -6.862,3.999 -7.007,4 -7.557,4.006 -8.001,4.456 -7.998,5.005 -7.995,5.556 -7.551,6 -7.001,6 -6.817,6 -2.464,5.95 0.799,1.6 1.131,1.158 1.041,0.531 0.599,0.2 0.419,0.065 0.209,0 0,0" /></g><g
           transform="matrix(-10.607038,1.8638459,-1.8638459,-10.607038,706.32842,1290.7955)"
           id="g216"><path
             id="path215"
             style="fill:#664500;fill-opacity:1;fill-rule:nonzero;stroke:none"
             d="m 0,0 c -0.208,0 -0.419,0.065 -0.599,0.2 -0.442,0.331 -0.531,0.958 -0.2,1.4 3.262,4.35 7.616,4.4 7.8,4.4 0.552,0 1,-0.448 1,-1 C 8.001,4.449 7.556,4.002 7.005,4 6.85,3.998 3.437,3.914 0.801,0.4 0.604,0.138 0.304,0 0,0" /></g><g
           transform="matrix(-10.607038,1.8638459,-1.8638459,-10.607038,593.33579,1325.9204)"
           id="g217"><path
             id="path216"
             style="fill:#664500;fill-opacity:1;fill-rule:nonzero;stroke:none"
             d="m 0,0 c 0.023,0.052 0.059,0.096 0.073,0.154 0.134,0.536 -0.192,1.079 -0.727,1.213 -0.181,0.045 -4.468,1.08 -7.798,-1.138 -0.459,-0.307 -0.583,-0.928 -0.277,-1.387 0.193,-0.289 0.51,-0.446 0.833,-0.446 0.19,0 0.383,0.055 0.554,0.168 1.092,0.73 2.362,0.995 3.468,1.062 -0.009,-0.077 -0.023,-0.151 -0.023,-0.23 0,-1.104 0.896,-2 2,-2 1.105,0 2,0.896 2,2 C 0.103,-0.392 0.061,-0.191 0,0" /></g><g
           transform="matrix(-10.607038,1.8638459,-1.8638459,-10.607038,466.05383,1348.2697)"
           id="g218"><path
             id="path217"
             style="fill:#664500;fill-opacity:1;fill-rule:nonzero;stroke:none"
             d="M 0,0 C 0.023,0.052 0.059,0.095 0.073,0.152 0.208,0.689 -0.118,1.231 -0.654,1.365 -0.834,1.41 -5.12,2.445 -8.451,0.227 -8.911,-0.079 -9.035,-0.7 -8.729,-1.16 c 0.193,-0.289 0.51,-0.445 0.834,-0.445 0.19,0 0.382,0.055 0.553,0.168 1.092,0.729 2.362,0.994 3.469,1.06 -0.009,-0.076 -0.023,-0.15 -0.023,-0.228 0,-1.104 0.895,-2 2,-2 1.104,0 2,0.896 2,2 C 0.104,-0.393 0.062,-0.192 0,0" /></g><path
           d="m 440.43849,1407.8578 c 0,0 7.58909,-12.5184 2.19196,-21.5403 -5.53774,-9.3365 -13.58927,-5.2411 -13.58927,-5.2411 0,0 7.18122,-9.2165 -0.12251,-19.8931 -6.88169,-10.0522 -16.98191,-5.1641 -16.98191,-5.1641 0,0 5.20946,-10.3062 -2.59435,-20.13 -6.57671,-8.2662 -18.55762,-4.7499 -18.55762,-4.7499 0,0 33.22071,-46.3818 36.66713,-51.0982 3.43097,-4.7176 6.58232,-14.6296 -3.26563,-21.8186 -9.83849,-7.2115 -18.07125,-0.6637 -21.36197,3.8457 -3.28353,4.5177 -44.94544,61.5369 -59.30665,81.2183 l -27.02742,108.0128 c 32.59026,23.8521 78.71813,17.5125 102.56294,-15.086 1.27343,-1.7085 21.38536,-28.3555 21.38536,-28.3555"
           style="fill:#f4900c;fill-opacity:1;fill-rule:nonzero;stroke:none"
           id="path218" /></g><g
         transform="matrix(0.14403676,0.05767082,-0.05767082,0.14403676,68.345913,-157.69668)"
         id="g226"
         style="filter:url(#filter114)"><g
           transform="matrix(-10.769549,0,0,-10.769549,362.60632,1347.3176)"
           id="g220"><path
             id="path219"
             style="fill:#ffcc4d;fill-opacity:1;fill-rule:nonzero;stroke:none"
             d="m 0,0 c 0,-9.941 -8.059,-18 -18,-18 -9.941,0 -18,8.059 -18,18 0,9.941 8.059,18 18,18 C -8.059,18 0,9.941 0,0" /></g><g
           transform="matrix(-10.769549,0,0,-10.769549,520.08302,1415.3268)"
           id="g221"><path
             id="path220"
             style="fill:#664500;fill-opacity:1;fill-rule:nonzero;stroke:none"
             d="m 0,0 c -0.153,0.132 -0.368,0.159 -0.551,0.069 l -4,-2 c -1.871,-0.935 -6.727,-0.947 -6.776,-0.947 h -10e-4 c -0.276,0 -0.499,-0.224 -0.499,-0.5 0,-0.184 0.1,-0.347 0.25,-0.433 v 0 h 10e-4 v 0 l 0.001,-10e-4 c 0.071,-0.041 0.153,-0.064 0.24,-0.066 h 0.008 7 c 2.658,0 4.089,2.186 4.474,3.342 C 0.211,-0.344 0.153,-0.133 0,0" /></g><g
           transform="matrix(-10.607038,1.8638459,-1.8638459,-10.607038,430.52421,1339.2592)"
           id="g222"><path
             id="path221"
             style="fill:#664500;fill-opacity:1;fill-rule:nonzero;stroke:none"
             d="M 0,0 C -0.305,0 -0.605,0.138 -0.801,0.4 -3.441,3.921 -6.862,3.999 -7.007,4 -7.557,4.006 -8.001,4.456 -7.998,5.005 -7.995,5.556 -7.551,6 -7.001,6 -6.817,6 -2.464,5.95 0.799,1.6 1.131,1.158 1.041,0.531 0.599,0.2 0.419,0.065 0.209,0 0,0" /></g><g
           transform="matrix(-10.607038,1.8638459,-1.8638459,-10.607038,706.32842,1290.7955)"
           id="g223"><path
             id="path222"
             style="fill:#664500;fill-opacity:1;fill-rule:nonzero;stroke:none"
             d="m 0,0 c -0.208,0 -0.419,0.065 -0.599,0.2 -0.442,0.331 -0.531,0.958 -0.2,1.4 3.262,4.35 7.616,4.4 7.8,4.4 0.552,0 1,-0.448 1,-1 C 8.001,4.449 7.556,4.002 7.005,4 6.85,3.998 3.437,3.914 0.801,0.4 0.604,0.138 0.304,0 0,0" /></g><g
           transform="matrix(-10.607038,1.8638459,-1.8638459,-10.607038,593.33579,1325.9204)"
           id="g224"><path
             id="path223"
             style="fill:#664500;fill-opacity:1;fill-rule:nonzero;stroke:none"
             d="m 0,0 c 0.023,0.052 0.059,0.096 0.073,0.154 0.134,0.536 -0.192,1.079 -0.727,1.213 -0.181,0.045 -4.468,1.08 -7.798,-1.138 -0.459,-0.307 -0.583,-0.928 -0.277,-1.387 0.193,-0.289 0.51,-0.446 0.833,-0.446 0.19,0 0.383,0.055 0.554,0.168 1.092,0.73 2.362,0.995 3.468,1.062 -0.009,-0.077 -0.023,-0.151 -0.023,-0.23 0,-1.104 0.896,-2 2,-2 1.105,0 2,0.896 2,2 C 0.103,-0.392 0.061,-0.191 0,0" /></g><g
           transform="matrix(-10.607038,1.8638459,-1.8638459,-10.607038,466.05383,1348.2697)"
           id="g225"><path
             id="path224"
             style="fill:#664500;fill-opacity:1;fill-rule:nonzero;stroke:none"
             d="M 0,0 C 0.023,0.052 0.059,0.095 0.073,0.152 0.208,0.689 -0.118,1.231 -0.654,1.365 -0.834,1.41 -5.12,2.445 -8.451,0.227 -8.911,-0.079 -9.035,-0.7 -8.729,-1.16 c 0.193,-0.289 0.51,-0.445 0.834,-0.445 0.19,0 0.382,0.055 0.553,0.168 1.092,0.729 2.362,0.994 3.469,1.06 -0.009,-0.076 -0.023,-0.15 -0.023,-0.228 0,-1.104 0.895,-2 2,-2 1.104,0 2,0.896 2,2 C 0.104,-0.393 0.062,-0.192 0,0" /></g><path
           d="m 440.43849,1407.8578 c 0,0 7.58909,-12.5184 2.19196,-21.5403 -5.53774,-9.3365 -13.58927,-5.2411 -13.58927,-5.2411 0,0 7.18122,-9.2165 -0.12251,-19.8931 -6.88169,-10.0522 -16.98191,-5.1641 -16.98191,-5.1641 0,0 5.20946,-10.3062 -2.59435,-20.13 -6.57671,-8.2662 -18.55762,-4.7499 -18.55762,-4.7499 0,0 33.22071,-46.3818 36.66713,-51.0982 3.43097,-4.7176 6.58232,-14.6296 -3.26563,-21.8186 -9.83849,-7.2115 -18.07125,-0.6637 -21.36197,3.8457 -3.28353,4.5177 -44.94544,61.5369 -59.30665,81.2183 l -27.02742,108.0128 c 32.59026,23.8521 78.71813,17.5125 102.56294,-15.086 1.27343,-1.7085 21.38536,-28.3555 21.38536,-28.3555"
           style="fill:#f4900c;fill-opacity:1;fill-rule:nonzero;stroke:none"
           id="path225" /></g></g></g></svg>
