<?xml version="1.0" encoding="UTF-8" standalone="no"?>
<!-- Created with Inkscape (http://www.inkscape.org/) -->

<svg
   width="1012.9816"
   height="151.93773"
   viewBox="0 0 268.01804 40.200189"
   version="1.1"
   id="svg1"
   xml:space="preserve"
   sodipodi:docname="stibarc_branding_assets.svg"
   inkscape:export-filename="..\GitHub\team.stibarc_2025\assets\img\stibarc_llc_wordmark.png"
   inkscape:export-xdpi="96"
   inkscape:export-ydpi="96"
   xmlns:inkscape="http://www.inkscape.org/namespaces/inkscape"
   xmlns:sodipodi="http://sodipodi.sourceforge.net/DTD/sodipodi-0.dtd"
   xmlns:xlink="http://www.w3.org/1999/xlink"
   xmlns="http://www.w3.org/2000/svg"
   xmlns:svg="http://www.w3.org/2000/svg"><sodipodi:namedview
     id="namedview1"
     pagecolor="#ffffff"
     bordercolor="#000000"
     borderopacity="0.25"
     inkscape:showpageshadow="2"
     inkscape:pageopacity="0.0"
     inkscape:pagecheckerboard="0"
     inkscape:deskcolor="#d1d1d1"
     showgrid="false" /><defs
     id="defs1"><linearGradient
       id="linearGradient4390"><stop
         style="stop-color:#ff7654;stop-opacity:1"
         offset="0"
         id="stop4392" /><stop
         style="stop-color:#ffae54;stop-opacity:1"
         offset="1"
         id="stop4394" /></linearGradient><linearGradient
       xlink:href="#linearGradient4390"
       id="linearGradient4369"
       x1="552.86676"
       y1="897.159"
       x2="1076.7231"
       y2="897.159"
       gradientUnits="userSpaceOnUse"
       gradientTransform="translate(-100.48048,-78.948945)" /><linearGradient
       xlink:href="#linearGradient4390"
       id="linearGradient4396"
       x1="439.28632"
       y1="818.21002"
       x2="958.18774"
       y2="818.21002"
       gradientUnits="userSpaceOnUse" /><linearGradient
       inkscape:collect="always"
       xlink:href="#linearGradient4390"
       id="linearGradient38"
       gradientUnits="userSpaceOnUse"
       x1="439.28632"
       y1="818.21002"
       x2="958.18774"
       y2="818.21002" /><linearGradient
       inkscape:collect="always"
       xlink:href="#linearGradient4390"
       id="linearGradient39"
       gradientUnits="userSpaceOnUse"
       gradientTransform="translate(-100.48048,-78.948945)"
       x1="456.25574"
       y1="897.159"
       x2="845.4422"
       y2="897.159" /></defs><g
     id="g39"
     transform="matrix(1.3446539,0,0,1.3446539,-139.98364,-110.81492)"><g
       id="g4672"
       transform="matrix(0.14511519,0,0,0.14511519,40.356726,-21.156588)"><g
         id="g4636"><text
           xml:space="preserve"
           style="font-style:normal;font-variant:normal;font-weight:normal;font-stretch:normal;line-height:0%;font-family:'Comic Sans MS';-inkscape-font-specification:'Comic Sans MS';letter-spacing:0px;word-spacing:0px;fill:none;fill-opacity:1;stroke:url(#linearGradient4396);stroke-width:26.2;stroke-linecap:butt;stroke-linejoin:miter;stroke-miterlimit:4;stroke-dasharray:none;stroke-opacity:1"
           x="437.91705"
           y="899.48492"
           id="text4375"><tspan
             id="tspan4377"
             x="437.91705"
             y="899.48492"
             style="font-size:221.197px;line-height:1.25;fill:none;fill-opacity:1;stroke:url(#linearGradient4396);stroke-width:26.2;stroke-miterlimit:4;stroke-dasharray:none;stroke-opacity:1">STiBaRC</tspan></text><text
           id="text4371"
           y="899.48492"
           x="437.91705"
           style="font-style:normal;font-variant:normal;font-weight:normal;font-stretch:normal;line-height:0%;font-family:'Comic Sans MS';-inkscape-font-specification:'Comic Sans MS';letter-spacing:0px;word-spacing:0px;fill:none;fill-opacity:1;stroke:#ffffff;stroke-width:16.3;stroke-linecap:butt;stroke-linejoin:miter;stroke-miterlimit:4;stroke-dasharray:none;stroke-opacity:1"
           xml:space="preserve"><tspan
             style="font-size:221.197px;line-height:1.25;fill:none;fill-opacity:1;stroke:#ffffff;stroke-width:16.3;stroke-miterlimit:4;stroke-dasharray:none;stroke-opacity:1"
             y="899.48492"
             x="437.91705"
             id="tspan4373">STiBaRC</tspan></text><text
           xml:space="preserve"
           style="font-style:normal;font-variant:normal;font-weight:normal;font-stretch:normal;line-height:0%;font-family:'Comic Sans MS';-inkscape-font-specification:'Comic Sans MS';letter-spacing:0px;word-spacing:0px;fill:url(#linearGradient4369);fill-opacity:1;stroke:none;stroke-width:1;stroke-linecap:butt;stroke-linejoin:miter;stroke-miterlimit:4;stroke-dasharray:none;stroke-opacity:1"
           x="437.91705"
           y="899.48492"
           id="text4359"><tspan
             id="tspan4361"
             x="437.91705"
             y="899.48492"
             style="font-size:221.197px;line-height:1.25;fill:url(#linearGradient4369);fill-opacity:1;stroke:none;stroke-width:1;stroke-miterlimit:4;stroke-dasharray:none;stroke-opacity:1">STiBaRC</tspan></text></g><g
         transform="matrix(0.13962615,0,0,0.13962615,699.40319,562.0994)"
         id="g4657"><g
           transform="matrix(-10.769549,0,0,-10.769549,362.60632,1347.3176)"
           id="g20"><path
             id="path22"
             style="fill:#ffcc4d;fill-opacity:1;fill-rule:nonzero;stroke:none"
             d="m 0,0 c 0,-9.941 -8.059,-18 -18,-18 -9.941,0 -18,8.059 -18,18 0,9.941 8.059,18 18,18 C -8.059,18 0,9.941 0,0" /></g><g
           transform="matrix(-10.769549,0,0,-10.769549,520.08302,1415.3268)"
           id="g24"><path
             id="path26"
             style="fill:#664500;fill-opacity:1;fill-rule:nonzero;stroke:none"
             d="m 0,0 c -0.153,0.132 -0.368,0.159 -0.551,0.069 l -4,-2 c -1.871,-0.935 -6.727,-0.947 -6.776,-0.947 h -10e-4 c -0.276,0 -0.499,-0.224 -0.499,-0.5 0,-0.184 0.1,-0.347 0.25,-0.433 v 0 h 10e-4 v 0 l 0.001,-10e-4 c 0.071,-0.041 0.153,-0.064 0.24,-0.066 h 0.008 7 c 2.658,0 4.089,2.186 4.474,3.342 C 0.211,-0.344 0.153,-0.133 0,0" /></g><g
           transform="matrix(-10.607038,1.8638459,-1.8638459,-10.607038,430.52421,1339.2592)"
           id="g28"><path
             id="path30"
             style="fill:#664500;fill-opacity:1;fill-rule:nonzero;stroke:none"
             d="M 0,0 C -0.305,0 -0.605,0.138 -0.801,0.4 -3.441,3.921 -6.862,3.999 -7.007,4 -7.557,4.006 -8.001,4.456 -7.998,5.005 -7.995,5.556 -7.551,6 -7.001,6 -6.817,6 -2.464,5.95 0.799,1.6 1.131,1.158 1.041,0.531 0.599,0.2 0.419,0.065 0.209,0 0,0" /></g><g
           transform="matrix(-10.607038,1.8638459,-1.8638459,-10.607038,706.32842,1290.7955)"
           id="g32"><path
             id="path34"
             style="fill:#664500;fill-opacity:1;fill-rule:nonzero;stroke:none"
             d="m 0,0 c -0.208,0 -0.419,0.065 -0.599,0.2 -0.442,0.331 -0.531,0.958 -0.2,1.4 3.262,4.35 7.616,4.4 7.8,4.4 0.552,0 1,-0.448 1,-1 C 8.001,4.449 7.556,4.002 7.005,4 6.85,3.998 3.437,3.914 0.801,0.4 0.604,0.138 0.304,0 0,0" /></g><g
           transform="matrix(-10.607038,1.8638459,-1.8638459,-10.607038,593.33579,1325.9204)"
           id="g36"><path
             id="path38"
             style="fill:#664500;fill-opacity:1;fill-rule:nonzero;stroke:none"
             d="m 0,0 c 0.023,0.052 0.059,0.096 0.073,0.154 0.134,0.536 -0.192,1.079 -0.727,1.213 -0.181,0.045 -4.468,1.08 -7.798,-1.138 -0.459,-0.307 -0.583,-0.928 -0.277,-1.387 0.193,-0.289 0.51,-0.446 0.833,-0.446 0.19,0 0.383,0.055 0.554,0.168 1.092,0.73 2.362,0.995 3.468,1.062 -0.009,-0.077 -0.023,-0.151 -0.023,-0.23 0,-1.104 0.896,-2 2,-2 1.105,0 2,0.896 2,2 C 0.103,-0.392 0.061,-0.191 0,0" /></g><g
           transform="matrix(-10.607038,1.8638459,-1.8638459,-10.607038,466.05383,1348.2697)"
           id="g40"><path
             id="path42"
             style="fill:#664500;fill-opacity:1;fill-rule:nonzero;stroke:none"
             d="M 0,0 C 0.023,0.052 0.059,0.095 0.073,0.152 0.208,0.689 -0.118,1.231 -0.654,1.365 -0.834,1.41 -5.12,2.445 -8.451,0.227 -8.911,-0.079 -9.035,-0.7 -8.729,-1.16 c 0.193,-0.289 0.51,-0.445 0.834,-0.445 0.19,0 0.382,0.055 0.553,0.168 1.092,0.729 2.362,0.994 3.469,1.06 -0.009,-0.076 -0.023,-0.15 -0.023,-0.228 0,-1.104 0.895,-2 2,-2 1.104,0 2,0.896 2,2 C 0.104,-0.393 0.062,-0.192 0,0" /></g><path
           d="m 440.43849,1407.8578 c 0,0 7.58909,-12.5184 2.19196,-21.5403 -5.53774,-9.3365 -13.58927,-5.2411 -13.58927,-5.2411 0,0 7.18122,-9.2165 -0.12251,-19.8931 -6.88169,-10.0522 -16.98191,-5.1641 -16.98191,-5.1641 0,0 5.20946,-10.3062 -2.59435,-20.13 -6.57671,-8.2662 -18.55762,-4.7499 -18.55762,-4.7499 0,0 33.22071,-46.3818 36.66713,-51.0982 3.43097,-4.7176 6.58232,-14.6296 -3.26563,-21.8186 -9.83849,-7.2115 -18.07125,-0.6637 -21.36197,3.8457 -3.28353,4.5177 -44.94544,61.5369 -59.30665,81.2183 l -27.02742,108.0128 c 32.59026,23.8521 78.71813,17.5125 102.56294,-15.086 1.27343,-1.7085 21.38536,-28.3555 21.38536,-28.3555"
           style="fill:#f4900c;fill-opacity:1;fill-rule:nonzero;stroke:none"
           id="path46" /></g></g><g
       id="g7"
       transform="matrix(0.14511519,0,0,0.14511519,183.76146,-22.048114)"><text
         xml:space="preserve"
         style="font-style:normal;font-variant:normal;font-weight:normal;font-stretch:normal;line-height:0%;font-family:'Comic Sans MS';-inkscape-font-specification:'Comic Sans MS';letter-spacing:0px;word-spacing:0px;fill:none;fill-opacity:1;stroke:url(#linearGradient38);stroke-width:26.2;stroke-linecap:butt;stroke-linejoin:miter;stroke-miterlimit:4;stroke-dasharray:none;stroke-opacity:1"
         x="437.91705"
         y="899.48492"
         id="text1"><tspan
           id="tspan1"
           x="437.91705"
           y="899.48492"
           style="font-size:221.197px;line-height:1.25;fill:none;fill-opacity:1;stroke:url(#linearGradient38);stroke-width:26.2;stroke-miterlimit:4;stroke-dasharray:none;stroke-opacity:1">LLC</tspan></text><text
         id="text2"
         y="899.48492"
         x="437.91705"
         style="font-style:normal;font-variant:normal;font-weight:normal;font-stretch:normal;line-height:0%;font-family:'Comic Sans MS';-inkscape-font-specification:'Comic Sans MS';letter-spacing:0px;word-spacing:0px;fill:none;fill-opacity:1;stroke:#ffffff;stroke-width:16.3;stroke-linecap:butt;stroke-linejoin:miter;stroke-miterlimit:4;stroke-dasharray:none;stroke-opacity:1"
         xml:space="preserve"><tspan
           style="font-size:221.197px;line-height:1.25;fill:none;fill-opacity:1;stroke:#ffffff;stroke-width:16.3;stroke-miterlimit:4;stroke-dasharray:none;stroke-opacity:1"
           y="899.48492"
           x="437.91705"
           id="tspan2">LLC</tspan></text><text
         xml:space="preserve"
         style="font-style:normal;font-variant:normal;font-weight:normal;font-stretch:normal;line-height:0%;font-family:'Comic Sans MS';-inkscape-font-specification:'Comic Sans MS';letter-spacing:0px;word-spacing:0px;fill:url(#linearGradient39);fill-opacity:1;stroke:none;stroke-width:1;stroke-linecap:butt;stroke-linejoin:miter;stroke-miterlimit:4;stroke-dasharray:none;stroke-opacity:1"
         x="437.91705"
         y="899.48492"
         id="text3"><tspan
           id="tspan3"
           x="437.91705"
           y="899.48492"
           style="font-size:221.197px;line-height:1.25;fill:url(#linearGradient39);fill-opacity:1;stroke:none;stroke-width:1;stroke-miterlimit:4;stroke-dasharray:none;stroke-opacity:1">LLC</tspan></text></g></g></svg>
